<?xml version="1.0" encoding="UTF-8" standalone="no"?>
<!-- Generator: Adobe Illustrator 23.0.6, SVG Export Plug-In . SVG Version: 6.00 Build 0)  -->

<svg
   version="1.1"
   id="Слой_1"
   x="0px"
   y="0px"
   viewBox="0 0 227.3 59.4"
   style="enable-background:new 0 0 227.3 59.4;"
   xml:space="preserve"
   sodipodi:docname="logo_brown.svg"
   inkscape:version="1.1.1 (3bf5ae0d25, 2021-09-20, custom)"
   xmlns:inkscape="http://www.inkscape.org/namespaces/inkscape"
   xmlns:sodipodi="http://sodipodi.sourceforge.net/DTD/sodipodi-0.dtd"
   xmlns:xlink="http://www.w3.org/1999/xlink"
   xmlns="http://www.w3.org/2000/svg"
   xmlns:svg="http://www.w3.org/2000/svg"><defs
   id="defs20" /><sodipodi:namedview
   id="namedview18"
   pagecolor="#ffffff"
   bordercolor="#666666"
   borderopacity="1.0"
   inkscape:pageshadow="2"
   inkscape:pageopacity="0.0"
   inkscape:pagecheckerboard="0"
   showgrid="false"
   inkscape:zoom="3.9788366"
   inkscape:cx="114.10371"
   inkscape:cy="39.835765"
   inkscape:window-width="2512"
   inkscape:window-height="1032"
   inkscape:window-x="948"
   inkscape:window-y="408"
   inkscape:window-maximized="1"
   inkscape:current-layer="Слой_1" />
<style
   type="text/css"
   id="style2">
	.st0{font-family:'Gilroy-Regular';}
	.st1{font-size:20px;}
	.st2{fill:#98764B;}
	.st3{font-family:'Oswald-Medium';}
	.st4{font-size:30px;}
	.st5{letter-spacing:2;}
</style>
<g
   id="g8">
	
		<image
   style="display:none;overflow:visible;enable-background:new    ;"
   width="244"
   height="87"
   xlink:href="../logo_green.png"
   transform="matrix(1 0 0 1 -6 -9.1765)"
   id="image4">
	</image>
	<g
   aria-label="АНДРЕЙ ВЕРЕТЕННИКОВ"
   transform="translate(0,17.8235)"
   id="text6"
   style="font-size:20px;font-family:Gilroy-Regular"
   class="st0 st1"><path
     d="M 10.92,0 9.62,-3.44 H 2.98 L 1.68,0 H 0.2 L 5.58,-14 H 7.02 L 12.4,0 Z M 3.48,-4.76 h 5.64 l -2.82,-7.5 z"
     style="font-family:Gilroy;-inkscape-font-specification:'Gilroy, Normal'"
     id="path6557" /><path
     d="m 23.199983,-14 h 1.4 V 0 h -1.4 v -6.54 h -7.6 V 0 h -1.4 v -14 h 1.4 v 6.14 h 7.6 z"
     style="font-family:Gilroy;-inkscape-font-specification:'Gilroy, Normal'"
     id="path6559" /><path
     d="m 37.799989,-1.32 h 1.5 v 4 h -1.4 V 0 h -10 v 2.68 h -1.4 v -4 h 1.14 q 1.38,-1.62 1.38,-5 V -14 h 8.78 z m -8.5,0 h 7.1 v -11.36 h -5.98 v 6.4 q 0,3.32 -1.12,4.96 z"
     style="font-family:Gilroy;-inkscape-font-specification:'Gilroy, Normal'"
     id="path6561" /><path
     d="m 46.6,-14 q 1.88,0 3.14,1.26 1.26,1.26 1.26,3.14 0,1.88 -1.26,3.14 -1.26,1.26 -3.14,1.26 H 43 V 0 h -1.4 v -14 z m 0,7.48 q 1.3,0 2.14,-0.86 0.86,-0.88 0.86,-2.22 0,-1.34 -0.86,-2.2 -0.84,-0.88 -2.14,-0.88 H 43 v 6.16 z"
     style="font-family:Gilroy;-inkscape-font-specification:'Gilroy, Normal'"
     id="path6563" /><path
     d="m 54.800003,-1.32 h 6.8 V 0 h -8.2 v -14 h 8.1 v 1.32 h -6.7 v 4.96 h 6.2 v 1.32 h -6.2 z"
     style="font-family:Gilroy;-inkscape-font-specification:'Gilroy, Normal'"
     id="path6565" /><path
     d="m 66.600017,-15.6 v -1.16 h 5.2 v 1.16 z m 6.4,15.6 v -11.4 l -7.8,11.4 h -1.2 v -14 h 1.4 v 11.4 l 7.8,-11.4 h 1.2 V 0 Z"
     style="font-family:Gilroy;-inkscape-font-specification:'Gilroy, Normal'"
     id="path6567" /><path
     d="m 90.360023,-7.26 q 1.02,0.44 1.62,1.34 0.62,0.88 0.62,2.02 0,1.62 -1.14,2.76 -1.14,1.14 -2.76,1.14 h -6.1 v -14 h 5.64 q 1.56,0 2.66,1.12 1.1,1.1 1.1,2.64 0,1.96 -1.64,2.98 z m -2.12,-5.42 h -4.24 v 4.88 h 4.24 q 0.98,0 1.66,-0.7 0.7,-0.72 0.7,-1.74 0,-1 -0.7,-1.72 -0.68,-0.72 -1.66,-0.72 z m 0.46,11.36 q 1.04,0 1.76,-0.74 0.74,-0.76 0.74,-1.84 0,-1.06 -0.74,-1.82 -0.72,-0.76 -1.76,-0.76 h -4.7 v 5.16 z"
     style="font-family:Gilroy;-inkscape-font-specification:'Gilroy, Normal'"
     id="path6569" /><path
     d="m 96.40004,-1.32 h 6.8 V 0 h -8.2 v -14 h 8.1 v 1.32 h -6.7 v 4.96 h 6.2 v 1.32 h -6.2 z"
     style="font-family:Gilroy;-inkscape-font-specification:'Gilroy, Normal'"
     id="path6571" /><path
     d="m 110.60005,-14 q 1.88,0 3.14,1.26 1.26,1.26 1.26,3.14 0,1.88 -1.26,3.14 -1.26,1.26 -3.14,1.26 h -3.6 V 0 h -1.4 v -14 z m 0,7.48 q 1.3,0 2.14,-0.86 0.86,-0.88 0.86,-2.22 0,-1.34 -0.86,-2.2 -0.84,-0.88 -2.14,-0.88 h -3.6 v 6.16 z"
     style="font-family:Gilroy;-inkscape-font-specification:'Gilroy, Normal'"
     id="path6573" /><path
     d="m 118.80006,-1.32 h 6.8 V 0 h -8.2 v -14 h 8.1 v 1.32 h -6.7 v 4.96 h 6.2 v 1.32 h -6.2 z"
     style="font-family:Gilroy;-inkscape-font-specification:'Gilroy, Normal'"
     id="path6575" /><path
     d="m 136.80007,-14 v 1.32 h -4.3 V 0 h -1.4 v -12.68 h -4.3 V -14 Z"
     style="font-family:Gilroy;-inkscape-font-specification:'Gilroy, Normal'"
     id="path6577" /><path
     d="m 140.20009,-1.32 h 6.8 V 0 h -8.2 v -14 h 8.1 v 1.32 h -6.7 v 4.96 h 6.2 v 1.32 h -6.2 z"
     style="font-family:Gilroy;-inkscape-font-specification:'Gilroy, Normal'"
     id="path6579" /><path
     d="m 158.40011,-14 h 1.4 V 0 h -1.4 v -6.54 h -7.6 V 0 h -1.4 v -14 h 1.4 v 6.14 h 7.6 z"
     style="font-family:Gilroy;-inkscape-font-specification:'Gilroy, Normal'"
     id="path6581" /><path
     d="m 172.00012,-14 h 1.4 V 0 h -1.4 v -6.54 h -7.6 V 0 h -1.4 v -14 h 1.4 v 6.14 h 7.6 z"
     style="font-family:Gilroy;-inkscape-font-specification:'Gilroy, Normal'"
     id="path6583" /><path
     d="m 185.60012,0 v -11.4 l -7.8,11.4 h -1.2 v -14 h 1.4 v 11.4 l 7.8,-11.4 h 1.2 V 0 Z"
     style="font-family:Gilroy;-inkscape-font-specification:'Gilroy, Normal'"
     id="path6585" /><path
     d="m 200.00013,0 h -1.84 l -6.56,-6.78 V 0 h -1.4 v -14 h 1.4 v 6.4 l 6.36,-6.4 h 1.84 l -6.72,6.8 z"
     style="font-family:Gilroy;-inkscape-font-specification:'Gilroy, Normal'"
     id="path6587" /><path
     d="m 212.18012,-1.86 q -2.1,2.1 -5.14,2.1 -3.04,0 -5.14,-2.1 -2.1,-2.12 -2.1,-5.14 0,-3.02 2.1,-5.12 2.1,-2.12 5.14,-2.12 3.04,0 5.14,2.12 2.1,2.1 2.1,5.12 0,3.02 -2.1,5.14 z m -9.3,-0.96 q 1.68,1.7 4.16,1.7 2.48,0 4.16,-1.7 1.68,-1.72 1.68,-4.18 0,-2.46 -1.68,-4.16 -1.68,-1.72 -4.16,-1.72 -2.48,0 -4.16,1.72 -1.68,1.7 -1.68,4.16 0,2.46 1.68,4.18 z"
     style="font-family:Gilroy;-inkscape-font-specification:'Gilroy, Normal'"
     id="path6589" /><path
     d="m 224.44014,-7.26 q 1.02,0.44 1.62,1.34 0.62,0.88 0.62,2.02 0,1.62 -1.14,2.76 -1.14,1.14 -2.76,1.14 h -6.1 v -14 h 5.64 q 1.56,0 2.66,1.12 1.1,1.1 1.1,2.64 0,1.96 -1.64,2.98 z m -2.12,-5.42 h -4.24 v 4.88 h 4.24 q 0.98,0 1.66,-0.7 0.7,-0.72 0.7,-1.74 0,-1 -0.7,-1.72 -0.68,-0.72 -1.66,-0.72 z m 0.46,11.36 q 1.04,0 1.76,-0.74 0.74,-0.76 0.74,-1.84 0,-1.06 -0.74,-1.82 -0.72,-0.76 -1.76,-0.76 h -4.7 v 5.16 z"
     style="font-family:Gilroy;-inkscape-font-specification:'Gilroy, Normal'"
     id="path6591" /></g>
</g>
<g
   id="g12">
	<g
   aria-label="ВЕБМАРКЕТОЛОГ"
   transform="translate(-1.9414,59.4114)"
   id="text10"
   style="font-size:30px;font-family:Oswald-Medium;letter-spacing:2;fill:#98764b"
   class="st2 st3 st4 st5"><path
     d="m 1.83,-24.3 h 6 q 3.45,0 5.28,1.41 1.83,1.41 1.83,4.83 0,2.22 -0.9,3.48 -0.9,1.23 -2.61,1.5 4.2,0.81 4.2,6 0,3.51 -1.71,5.31 Q 12.21,0 8.85,0 H 1.83 Z m 5.94,9.93 q 1.92,0 2.61,-0.84 0.72,-0.87 0.72,-2.79 0,-1.86 -0.93,-2.52 -0.9,-0.69 -3.03,-0.69 h -0.9 v 6.84 z m 0.18,11.25 q 1.95,0 2.7,-0.93 0.75,-0.93 0.75,-3.06 0,-2.19 -0.84,-3.18 -0.81,-1.02 -2.76,-1.02 H 6.24 v 8.19 z"
     style="font-weight:500;font-family:Oswald;-inkscape-font-specification:'Oswald, Medium'"
     id="path6613" /><path
     d="m 20.539976,-24.3 h 10.2 v 3.12 h -5.79 v 6.99 h 4.56 v 3.09 h -4.56 v 8.07 h 5.85 V 0 h -10.26 z"
     style="font-weight:500;font-family:Oswald;-inkscape-font-specification:'Oswald, Medium'"
     id="path6615" /><path
     d="m 35.439961,-24.3 h 11.28 v 3.3 h -6.87 v 6.9 h 0.96 q 3.81,0 5.64,1.62 1.83,1.62 1.83,5.43 0,3.9 -1.92,5.49 -1.92,1.56 -5.7,1.56 h -5.22 z m 5.25,21.3 q 1.89,0 2.67,-0.84 0.81,-0.87 0.81,-3.15 0,-2.07 -0.78,-3.03 -0.78,-0.99 -2.79,-0.99 h -0.75 V -3 Z"
     style="font-weight:500;font-family:Oswald;-inkscape-font-specification:'Oswald, Medium'"
     id="path6617" /><path
     d="m 53.48995,-24.3 h 4.59 l 3.45,16.83 3.57,-16.83 h 4.47 l 0.45,24.3 h -3.3 l -0.36,-16.89 -3.45,16.89 h -2.67 l -3.51,-16.95 -0.33,16.95 h -3.33 z"
     style="font-weight:500;font-family:Oswald;-inkscape-font-specification:'Oswald, Medium'"
     id="path6619" /><path
     d="m 79.249963,-24.3 h 4.74 l 4.86,24.3 h -4.11 l -0.96,-5.61 h -4.23 l -0.99,5.61 h -4.17 z m 4.05,15.87 -1.65,-10.2 -1.65,10.2 z"
     style="font-weight:500;font-family:Oswald;-inkscape-font-specification:'Oswald, Medium'"
     id="path6621" /><path
     d="m 93.279951,-24.3 h 7.139999 q 6.21,0 6.21,6.9 0,6.6 -6.51,6.6 H 97.689951 V 0 h -4.41 z m 6.12,10.38 q 1.799999,0 2.429999,-0.75 0.63,-0.78 0.63,-2.76 0,-1.44 -0.21,-2.19 -0.21,-0.78 -0.87,-1.17 -0.63,-0.39 -1.979999,-0.39 h -1.71 v 7.26 z"
     style="font-weight:500;font-family:Oswald;-inkscape-font-specification:'Oswald, Medium'"
     id="path6623" /><path
     d="m 111.14996,-24.3 h 4.41 v 10.2 h 0.9 l 3.93,-10.2 h 4.41 l -4.62,11.49 4.98,12.81 h -4.47 l -4.23,-11.19 h -0.9 V 0 h -4.41 z"
     style="font-weight:500;font-family:Oswald;-inkscape-font-specification:'Oswald, Medium'"
     id="path6625" /><path
     d="m 129.31997,-24.3 h 10.2 v 3.12 h -5.79 v 6.99 h 4.56 v 3.09 h -4.56 v 8.07 h 5.85 V 0 h -10.26 z"
     style="font-weight:500;font-family:Oswald;-inkscape-font-specification:'Oswald, Medium'"
     id="path6627" /><path
     d="m 146.58996,-21.03 h -3.87 v -3.27 h 12.09 v 3.27 h -3.78 V 0 h -4.44 z"
     style="font-weight:500;font-family:Oswald;-inkscape-font-specification:'Oswald, Medium'"
     id="path6629" /><path
     d="m 165.65998,0.33 q -3.78,0 -5.4,-2.01 -1.62,-2.04 -1.62,-5.94 v -9.12 q 0,-3.87 1.62,-5.85 1.62,-1.98 5.4,-1.98 3.75,0 5.37,1.98 1.62,1.98 1.62,5.85 v 9.12 q 0,3.87 -1.65,5.91 -1.62,2.04 -5.34,2.04 z m 0,-3.27 q 1.47,0 1.98,-0.93 0.51,-0.93 0.51,-2.7 v -11.19 q 0,-1.77 -0.51,-2.67 -0.48,-0.9 -1.98,-0.9 -1.5,0 -2.01,0.93 -0.51,0.9 -0.51,2.64 v 11.19 q 0,1.77 0.51,2.7 0.51,0.93 2.01,0.93 z"
     style="font-weight:500;font-family:Oswald;-inkscape-font-specification:'Oswald, Medium'"
     id="path6631" /><path
     d="m 176.23997,-3.18 q 1.53,0.03 2.19,-0.48 0.69,-0.54 1.05,-2.4 0.36,-1.86 0.69,-6.39 l 0.78,-11.85 h 11.82 V 0 h -4.41 v -20.97 h -3.51 l -0.51,9.06 q -0.3,4.86 -0.81,7.23 -0.51,2.34 -1.92,3.54 -1.38,1.17 -4.29,1.17 -0.69,0 -1.08,-0.03 z"
     style="font-weight:500;font-family:Oswald;-inkscape-font-specification:'Oswald, Medium'"
     id="path6633" /><path
     d="m 205.15,0.33 q -3.78,0 -5.4,-2.01 -1.62,-2.04 -1.62,-5.94 v -9.12 q 0,-3.87 1.62,-5.85 1.62,-1.98 5.4,-1.98 3.75,0 5.37,1.98 1.62,1.98 1.62,5.85 v 9.12 q 0,3.87 -1.65,5.91 -1.62,2.04 -5.34,2.04 z m 0,-3.27 q 1.47,0 1.98,-0.93 0.51,-0.93 0.51,-2.7 v -11.19 q 0,-1.77 -0.51,-2.67 -0.48,-0.9 -1.98,-0.9 -1.5,0 -2.01,0.93 -0.51,0.9 -0.51,2.64 v 11.19 q 0,1.77 0.51,2.7 0.51,0.93 2.01,0.93 z"
     style="font-weight:500;font-family:Oswald;-inkscape-font-specification:'Oswald, Medium'"
     id="path6635" /><path
     d="m 217.46999,-24.3 h 10.26 v 3.27 h -5.85 V 0 h -4.41 z"
     style="font-weight:500;font-family:Oswald;-inkscape-font-specification:'Oswald, Medium'"
     id="path6637" /></g>
</g>
<g
   id="Слой_3">
	<rect
   x="0.1"
   y="25.8"
   class="st2"
   width="227.2"
   height="2.1"
   id="rect14" />
</g>
</svg>
