<?xml version="1.0" encoding="UTF-8" standalone="no"?>
<!-- Created with Inkscape (http://www.inkscape.org/) -->

<svg
   version="1.1"
   id="svg2"
   xml:space="preserve"
   width="37.066666"
   height="25.466667"
   viewBox="0 0 37.066666 25.466667"
   sodipodi:docname="quote_brown.svg"
   inkscape:version="1.1.1 (3bf5ae0d25, 2021-09-20, custom)"
   xmlns:inkscape="http://www.inkscape.org/namespaces/inkscape"
   xmlns:sodipodi="http://sodipodi.sourceforge.net/DTD/sodipodi-0.dtd"
   xmlns="http://www.w3.org/2000/svg"
   xmlns:svg="http://www.w3.org/2000/svg"><defs
     id="defs6"><clipPath
       clipPathUnits="userSpaceOnUse"
       id="clipPath16"><path
         d="M 0,19.1 H 27.8 V 0 H 0 Z"
         id="path14" /></clipPath></defs><sodipodi:namedview
     id="namedview4"
     pagecolor="#ffffff"
     bordercolor="#666666"
     borderopacity="1.0"
     inkscape:pageshadow="2"
     inkscape:pageopacity="0.0"
     inkscape:pagecheckerboard="0"
     showgrid="false"
     inkscape:zoom="32.316753"
     inkscape:cx="18.535278"
     inkscape:cy="12.733334"
     inkscape:window-width="2512"
     inkscape:window-height="1032"
     inkscape:window-x="948"
     inkscape:window-y="408"
     inkscape:window-maximized="1"
     inkscape:current-layer="g8" /><g
     id="g8"
     inkscape:groupmode="layer"
     inkscape:label="quote_brown"
     transform="matrix(1.3333333,0,0,-1.3333333,0,25.466667)"><g
       id="g10"><g
         id="g12"
         clip-path="url(#clipPath16)"><g
           id="g18"
           transform="translate(5.6001,6.6996)"><path
             d="m 0,0 c -0.3,-2.1 -1,-4.1 -2,-5.899 -0.1,-0.3 0,-0.601 0.2,-0.701 0.2,-0.099 0.3,-0.099 0.5,0 5.6,3.201 8,8 8.3,11.701 0.3,3.399 -2,6.5 -5.3,7.199 -3.4,0.6 -6.6,-1.6 -7.2,-5 -0.6,-3.4 1.6,-6.6 5,-7.199 C -0.4,0.101 -0.2,0 0,0"
             style="fill:#98764b;fill-opacity:1;fill-rule:nonzero;stroke:none"
             id="path20" /></g><g
           id="g22"
           transform="translate(20.7002,6.6996)"><path
             d="m 0,0 c -0.3,-2.1 -1,-4.1 -2,-5.899 -0.101,-0.3 0,-0.601 0.2,-0.701 0.199,-0.099 0.3,-0.099 0.5,0 5.6,3.201 8,8 8.3,11.701 0.3,3.399 -2,6.5 -5.3,7.199 -3.4,0.6 -6.6,-1.6 -7.2,-5 -0.6,-3.4 1.6,-6.6 5,-7.199 C -0.4,0.101 -0.2,0 0,0"
             style="fill:#98764b;fill-opacity:1;fill-rule:nonzero;stroke:none"
             id="path24" /></g></g></g></g></svg>
